<svg xmlns="http://www.w3.org/2000/svg" viewBox="0 0 32 32" width="32" height="32" role="img" aria-label="xixo">
  <rect width="32" height="32" rx="7" fill="#080d0f"/>
  <g transform="translate(4.96 3.637) scale(0.8832)">
    <path d="M0.409 20.181 L4.045 5.636 L6.955 6.364 L3.319 20.909 A1.5 1.5 0 0 1 0.409 20.181 Z" fill="#e2705f"/>
    <path d="M6.045 21.636 L9.681 7.091 A1.5 1.5 0 0 1 11.5 6 L12.955 6.364 L8.955 22.364 Z" fill="#6fb583"/>
    <path d="M12.045 21.636 L16.045 5.636 L18.955 6.364 L14.955 22.364 Z" fill="#5f9fd0"/>
    <path d="M18.045 21.636 L21.681 7.091 A1.5 1.5 0 0 1 23.5 6 L24.955 6.364 L21.319 20.909 A1.5 1.5 0 0 1 19.5 22 Z" fill="#a684c4"/>
  </g>
</svg>
